<!--?xml version="1.0" encoding="UTF-8"?-->
<svg width="720" height="720" viewBox="0 0 720 720" fill="none" xmlns="http://www.w3.org/2000/svg">
  <defs>
    <linearGradient id="tmh1" x1="120" y1="80" x2="600" y2="640" gradientUnits="userSpaceOnUse">
      <stop stop-color="#64E9EE"></stop>
      <stop offset="1" stop-color="#3AAFB9"></stop>
    </linearGradient>
    <linearGradient id="tmh2" x1="240" y1="200" x2="520" y2="520" gradientUnits="userSpaceOnUse">
      <stop stop-color="#EAF2F8" stop-opacity="0.95"></stop>
      <stop offset="1" stop-color="#D8F4F6" stop-opacity="0.95"></stop>
    </linearGradient>
    <filter id="tmGlow" x="-20%" y="-20%" width="140%" height="140%">
      <feGaussianBlur stdDeviation="12" result="b"></feGaussianBlur>
      <feMerge><feMergeNode in="b"></feMergeNode><feMergeNode in="SourceGraphic"></feMergeNode></feMerge>
    </filter>
  </defs>

  <!-- Outer and inner rings -->
  <circle cx="360" cy="360" r="300" stroke="url(#tmh1)" stroke-width="10" opacity=".9"></circle>
  <circle cx="360" cy="360" r="300" stroke="url(#tmh1)" stroke-width="10" opacity=".18" filter="url(#tmGlow)"></circle>
  <circle cx="360" cy="360" r="220" stroke="#FFFFFF" stroke-opacity=".08" stroke-width="2"></circle>

  <!-- Stylized T (hero) -->
  <path d="M220 260h280" stroke="url(#tmh2)" stroke-linecap="round" stroke-width="42"></path>
  <path d="M360 280v220" stroke="url(#tmh2)" stroke-linecap="round" stroke-width="42"></path>

  <!-- location pin + heart -->
  <g transform="translate(480 220)" filter="url(#tmGlow)">
    <path d="M84 0c46 0 84 37 84 83 0 59-56 109-80 134a7 7 0 0 1-9 0C55 192 0 142 0 83 0 37 38 0 84 0z" fill="url(#tmh1)"></path>
    <path d="M84 42c-11 0-20 5-26 13-6-8-15-13-26-13-18 0-33 14-33 32 0 29 38 47 60 63 2 1 5 1 7 0 23-16 60-34 60-63 0-18-15-32-33-32-11 0-20 5-26 13-6-8-15-13-26-13z" fill="#001011" opacity=".9"></path>
  </g>
</svg>
